 <svg version="1.0" xmlns="http://www.w3.org/2000/svg"  width="300.000000pt" height="300.000000pt" viewBox="0 0 300.000000 300.000000"  preserveAspectRatio="xMidYMid meet">  <g transform="translate(0.000000,300.000000) scale(0.100000,-0.100000)" fill="#000000" stroke="none"> <path d="M75 2855 c-30 -29 -31 -54 -4 -88 20 -26 23 -27 156 -29 l136 -3 177 -743 c145 -608 174 -742 161 -742 -30 0 -116 -48 -148 -81 -95 -101 -99 -260 -8 -367 38 -46 119 -85 177 -86 55 -1 60 -8 18 -26 -44 -18 -115 -102 -134 -157 -9 -26 -16 -77 -16 -114 0 -212 228 -357 426 -269 133 58 210 217 171 351 -25 83 -69 144 -127 176 -27 16 -50 30 -50 33 0 3 304 5 675 5 371 0 675 -2 675 -5 -1 -3 -20 -14 -43 -26 -87 -43 -155 -174 -144 -279 17 -162 142 -278 302 -279 210 -2 358 206 289 407 -19 55 -90 139 -134 157 -45 19 -36 25 30 22 52 -3 62 -1 85 22 32 32 32 60 0 91 l-24 25 -1001 0 c-1091 0 -1033 -3 -1079 56 -26 33 -28 104 -5 144 38 63 -17 60 956 60 982 0 953 -2 1028 66 21 19 45 50 54 69 14 29 276 1080 276 1106 0 6 -11 21 -25 34 l-24 25 -1159 0 -1158 0 -52 218 c-40 171 -56 221 -73 235 -18 15 -44 17 -191 17 -166 0 -169 0 -193 -25z m359 -35 c9 -8 36 -103 61 -210 33 -140 52 -201 67 -217 l21 -23 1142 0 c962 0 1144 -2 1160 -14 24 -17 24 -14 -86 -466 -44 -179 -93 -380 -109 -447 -45 -187 -64 -223 -145 -266 -40 -22 -42 -22 -950 -27 l-910 -5 -33 -23 c-63 -45 -91 -147 -58 -210 19 -36 65 -78 99 -91 19 -8 343 -11 1016 -11 867 0 990 -2 1001 -15 19 -22 -5 -45 -47 -45 -35 0 -83 -25 -83 -42 0 -6 30 -43 68 -82 74 -78 92 -118 92 -208 0 -97 -60 -186 -155 -229 -57 -26 -166 -25 -221 1 -85 42 -154 149 -154 240 0 69 31 132 96 197 35 35 64 70 64 78 0 8 -10 21 -22 29 -20 14 -99 16 -663 16 -564 0 -643 -2 -663 -16 -33 -23 -27 -49 24 -91 73 -60 97 -104 102 -196 6 -101 -13 -151 -78 -210 -55 -50 -103 -67 -186 -67 -143 1 -254 110 -254 251 0 89 23 140 97 212 58 57 64 67 54 85 -7 13 -29 26 -54 32 -139 35 -207 112 -207 232 1 98 57 178 155 218 30 12 58 31 65 45 14 25 14 21 -105 520 -24 99 -85 353 -135 565 -50 211 -94 389 -97 395 -3 5 -15 20 -26 33 -19 20 -29 22 -133 22 -121 0 -144 4 -144 26 0 26 43 34 182 31 107 -1 141 -5 152 -17z"/> <path d="M612 2290 c-12 -12 -22 -32 -22 -45 0 -13 20 -109 45 -212 25 -103 75 -314 111 -468 36 -154 75 -294 86 -312 15 -25 28 -33 61 -38 23 -3 391 -5 817 -3 857 3 811 0 859 67 21 30 28 55 116 416 25 105 66 272 91 373 48 197 47 214 -2 232 -16 6 -437 10 -1083 10 -1050 0 -1057 0 -1079 -20z m2175 -32 c-2 -7 -55 -220 -116 -473 -65 -269 -119 -470 -130 -485 -37 -51 -11 -50 -873 -50 -760 0 -807 1 -812 18 -8 26 -236 990 -236 997 0 3 489 5 1086 5 865 0 1085 -3 1081 -12z"/> <path d="M2561 2044 c-18 -74 -31 -137 -29 -140 3 -2 20 57 38 131 18 75 31 138 28 140 -2 2 -19 -57 -37 -131z"/> <path d="M1102 2090 c-49 -20 -48 -37 18 -341 37 -171 67 -291 77 -301 36 -40 116 -10 116 44 0 54 -116 564 -132 579 -22 23 -51 29 -79 19z m58 -64 c14 -38 110 -488 110 -518 0 -30 -11 -41 -34 -32 -22 9 -24 15 -122 478 -11 52 -12 71 -3 82 17 21 38 17 49 -10z"/> <path d="M1626 2079 l-26 -20 0 -299 c0 -297 0 -299 22 -314 34 -24 73 -20 97 10 20 26 21 39 21 300 0 289 -3 313 -47 333 -32 15 -36 14 -67 -10z m64 -48 c6 -12 10 -118 10 -275 0 -215 -2 -257 -15 -270 -9 -8 -22 -13 -30 -10 -13 5 -15 49 -15 283 0 153 3 281 7 284 12 13 32 7 43 -12z"/> <path d="M2192 2090 c-12 -5 -27 -20 -32 -32 -15 -35 -120 -525 -120 -563 0 -18 8 -39 18 -48 25 -23 75 -21 96 2 10 11 38 120 76 296 33 152 60 283 60 290 0 19 -32 52 -55 58 -11 3 -30 2 -43 -3z m47 -54 c9 -10 3 -53 -24 -182 -77 -367 -84 -391 -118 -378 -28 11 -28 16 53 383 17 79 36 155 41 168 10 26 31 30 48 9z"/> <path d="M2466 1654 c-10 -41 -16 -77 -14 -80 3 -2 12 30 22 72 10 41 16 77 14 80 -3 2 -12 -30 -22 -72z"/> <path d="M2431 1514 c-7 -26 -10 -48 -7 -51 5 -5 11 14 21 65 10 49 -1 38 -14 -14z"/> <path d="M2385 1407 c-16 -22 -50 -51 -74 -64 -24 -13 -37 -23 -29 -23 23 0 78 40 111 82 17 21 29 40 26 42 -2 1 -17 -15 -34 -37z"/> <path d="M825 615 c-106 -37 -160 -175 -109 -275 17 -35 73 -87 107 -99 147 -56 302 91 257 242 -16 54 -83 121 -135 136 -51 14 -71 13 -120 -4z m156 -48 c19 -12 45 -43 58 -70 34 -69 24 -127 -33 -183 -56 -57 -114 -67 -183 -33 -70 35 -96 79 -91 154 6 102 62 154 164 155 36 0 61 -6 85 -23z"/> <path d="M2428 620 c-47 -14 -88 -44 -116 -84 -23 -33 -27 -50 -27 -107 0 -59 4 -73 30 -111 73 -105 216 -118 302 -27 40 43 53 77 53 140 0 130 -122 225 -242 189z m153 -65 c47 -46 62 -81 57 -140 -12 -139 -166 -201 -268 -109 -87 78 -75 203 24 266 24 15 44 18 93 16 53 -3 67 -8 94 -33z"/> </g> </svg> 